<?xml version="1.0" standalone="no"?>
<!DOCTYPE svg PUBLIC "-//W3C//DTD SVG 20010904//EN"
 "http://www.w3.org/TR/2001/REC-SVG-20010904/DTD/svg10.dtd">
<svg version="1.0" xmlns="http://www.w3.org/2000/svg"
 width="180.000000pt" height="180.000000pt" viewBox="0 0 180.000000 180.000000"
 preserveAspectRatio="xMidYMid meet">

<g transform="translate(0.000000,180.000000) scale(0.100000,-0.100000)"
fill="#000000" stroke="none">
<path d="M475 1619 c-146 -91 -246 -197 -319 -339 -72 -139 -91 -219 -91 -390
0 -167 18 -246 84 -378 59 -118 171 -255 198 -245 11 4 0 21 -40 62 -190 193
-267 487 -202 760 20 82 81 213 132 283 57 76 182 190 247 224 31 16 56 35 56
42 0 18 -9 15 -65 -19z"/>
<path d="M1280 1632 c0 -4 34 -30 76 -57 92 -60 200 -173 256 -267 156 -263
149 -602 -18 -861 -154 -238 -409 -377 -693 -377 -164 0 -317 46 -451 136 -84
56 -117 69 -84 33 26 -29 149 -103 219 -132 111 -46 203 -60 354 -54 103 3
153 10 206 27 525 168 759 753 492 1230 -51 91 -206 253 -287 299 -57 32 -70
36 -70 23z"/>
<path d="M618 1561 c-32 -55 -35 -92 -12 -115 35 -36 104 -7 104 43 0 22 -49
121 -60 121 -3 0 -17 -22 -32 -49z m51 -48 c10 -22 9 -29 -3 -42 -15 -14 -17
-14 -32 0 -12 13 -13 20 -3 42 7 15 15 27 19 27 4 0 12 -12 19 -27z"/>
<path d="M958 1550 c-32 -57 -35 -91 -12 -114 16 -17 61 -21 80 -8 6 4 16 17
22 28 10 18 6 32 -20 83 -17 34 -34 61 -37 61 -3 0 -18 -23 -33 -50z m50 -45
c20 -43 -9 -75 -37 -41 -9 10 -9 20 0 40 15 32 23 33 37 1z"/>
<path d="M778 1491 c-33 -58 -35 -91 -9 -115 27 -24 70 -17 94 16 l20 27 -30
57 c-17 32 -34 59 -39 61 -5 2 -21 -19 -36 -46z m52 -46 c12 -22 12 -28 -4
-43 -16 -16 -18 -16 -31 1 -10 15 -11 25 -3 43 14 30 21 30 38 -1z"/>
<path d="M1110 1493 c-34 -54 -37 -79 -14 -111 27 -39 96 -24 108 23 5 19 -2
41 -24 81 -17 30 -33 54 -36 54 -2 0 -17 -21 -34 -47z m60 -74 c0 -18 -26 -33
-41 -23 -13 8 -11 41 3 64 12 19 13 19 25 -3 7 -12 12 -29 13 -38z"/>
<path d="M888 1362 c-4 -14 -18 -20 -59 -25 -204 -24 -393 -252 -377 -457 l3
-45 218 -3 218 -2 -3 -235 c-3 -263 -3 -262 -76 -272 -74 -10 -122 27 -122 92
0 16 -6 25 -15 25 -11 0 -15 -11 -15 -35 0 -74 46 -117 128 -118 59 -1 89 11
114 46 25 34 25 35 27 384 l1 113 213 2 212 3 3 59 c6 111 -49 238 -139 325
-56 53 -168 110 -236 118 -39 4 -54 11 -58 24 -8 24 -31 24 -37 1z m116 -151
c63 -87 94 -168 111 -293 l6 -48 -215 0 c-249 0 -227 -13 -200 117 21 104 74
205 141 270 l54 53 35 -26 c19 -15 49 -47 68 -73z m-218 35 c-74 -92 -126
-226 -126 -328 l0 -48 -86 0 -87 0 5 68 c11 136 98 261 231 327 103 52 117 47
63 -19z m291 25 c142 -68 243 -216 243 -358 l0 -43 -85 0 -85 0 0 38 c0 54
-34 180 -64 239 -13 27 -43 73 -65 101 -50 62 -38 67 56 23z"/>
</g>
</svg>
